# xmcd CD database file
#
# Track frame offsets:
#	150
#	19750
#	48425
#	57732
#	70450
#	82970
#	109900
#	127585
#	137670
#	155302
#	164830
#	168252
#	186140
#	197442
#	217205
#	243332
#	256050
#	283747
#	295620
#	317887
#
# Disc length: 4397 seconds
#
# Revision: 0
# Processed by: cddbd v1.5PL3 Copyright (c) Steve Scherf et al.
# Submitted via: CDex 1.51
#
DISCID=26112b14
DTITLE=Various Artist - Indies Magazine Vol.7
DYEAR=1997
DGENRE=Trailer
TTITLE0=PEALOUT/WEAPON
TTITLE1=BLOOD THIRSTY BUTCHERS/八月
TTITLE2=LOVE PIGS/IS IT FUN ?
TTITLE3=NUMB/VANITY
TTITLE4=SOBUT/ARE YOU NERVOUS
TTITLE5=COALTER OF THE DEEPERS/夏の行人坂
TTITLE6=CULT INSANE/DESERT FLOOR
TTITLE7=BEROTECS/I WANNA BE YOUR DOG
TTITLE8=BATTiES BOYS/SLAM CITY
TTITLE9=NOBODIES/WHY CAN YOU STAND ?
TTITLE10=QIL/Q.A.Q.
TTITLE11=NONA REEVES/SOUL FRIEND
TTITLE12=フラフラスキッピーズ/かえる
TTITLE13=SHORT HAIR FRONT/CARDIFF
TTITLE14=SUGAR PLANT/I WAS YOU (EDIT)
TTITLE15=FOLKFLAT/WE BELONG TOGETHER
TTITLE16=面影ラッキーホール/今夜、巣鴨で
TTITLE17=ANIMO COMPUTER/AUTOBOT
TTITLE18=MOODY/不思議な力について
TTITLE19=LOIS/UNATTACHED
EXTD=YEAR: 1997
EXTT0=
EXTT1=
EXTT2=
EXTT3=
EXTT4=
EXTT5=
EXTT6=
EXTT7=
EXTT8=
EXTT9=
EXTT10=
EXTT11=
EXTT12=
EXTT13=
EXTT14=
EXTT15=
EXTT16=
EXTT17=
EXTT18=
EXTT19=
PLAYORDER=
